# xmcd
#
# Track frame offsets:
#	150
#	17133
#	33207
#	52563
#	68936
#	84889
#	101254
#	122207
#	150810
#	176831
#	194211
#	217056
#	232835
#	248510
#
# Disc length: 3599 seconds
#
# Revision: 0
# Processed by: cddbd v1.5.1PL0 Copyright (c) Steve Scherf et al.
# Submitted via: dBpowerAMP V4.0
#
DISCID=a80e0d0e
DTITLE=Varios - Amigos pra valer
DYEAR=1998
DGENRE=Country
TTITLE0=Amigos - Pao de mel
TTITLE1=Amigos - E o amor
TTITLE2=Amigos - Temporal de amor
TTITLE3=Amigos - Cerveja
TTITLE4=Amigos - Paginas de amigos
TTITLE5=Amigos - Coracao sertanejo
TTITLE6=Amigos - Festa de rodeio
TTITLE7=Amigos - Potpuri
TTITLE8=Amigos - Preciso ser amado
TTITLE9=Amigos - Cuida de mim
TTITLE10=Amigos - Eu juro
TTITLE11=Amigos - Pura emocao
TTITLE12=Amigos - Nao aprendi a dizer adeus
TTITLE13=Amigos - Marcas do que se foi
EXTD=
EXTT0=
EXTT1=
EXTT2=
EXTT3=
EXTT4=
EXTT5=
EXTT6=
EXTT7=
EXTT8=
EXTT9=
EXTT10=
EXTT11=
EXTT12=
EXTT13=
PLAYORDER=
